<?xml version="1.0" encoding="UTF-8" standalone="no"?>
<svg
   class="MuiSvgIcon-root MuiSvgIcon-fontSizeLarge css-1pjdxc2-MuiSvgIcon-root"
   aria-hidden="true"
   viewBox="0 0 24 24"
   data-testid="RedditIcon"
   version="1.1"
   id="svg1"
   sodipodi:docname="icon.svg"
   inkscape:version="1.4 (e7c3feb100, 2024-10-09)"
   xmlns:inkscape="http://www.inkscape.org/namespaces/inkscape"
   xmlns:sodipodi="http://sodipodi.sourceforge.net/DTD/sodipodi-0.dtd"
   xmlns="http://www.w3.org/2000/svg"
   xmlns:svg="http://www.w3.org/2000/svg">
  <defs
     id="defs1" />
  <sodipodi:namedview
     id="namedview1"
     pagecolor="#ffffff"
     bordercolor="#000000"
     borderopacity="0.25"
     inkscape:showpageshadow="2"
     inkscape:pageopacity="0.0"
     inkscape:pagecheckerboard="0"
     inkscape:deskcolor="#d1d1d1"
     inkscape:zoom="28.178224"
     inkscape:cx="-2.1115596"
     inkscape:cy="10.007728"
     inkscape:window-width="3440"
     inkscape:window-height="1402"
     inkscape:window-x="0"
     inkscape:window-y="0"
     inkscape:window-maximized="1"
     inkscape:current-layer="svg1" />
  <path
     d="m 1.9839079,12.14 c 0.00581,-1.928675 2.3215233,-2.9086385 3.71,-1.57 C 7.4279494,9.3985418 9.4618364,8.7495028 11.553908,8.7 l -1,-4.7 -3.2700001,0.71 C 7.2029867,6.5446567 4.5768429,6.7538776 4.1997032,4.9624641 3.8225635,3.1710507 6.3101529,2.3036962 7.1239079,3.95 L 10.763908,3.18 c 0.11,-0.02 0.22,0 0.29,0.06 0.09,0.05 0.14,0.14 0.16,0.26 l 1.11,5.22 c 2.33,0.07 4.43,0.78 5.95,1.86 0.413943,-0.380453 0.957835,-0.587991 1.52,-0.58 2.390608,-0.068851 3.104363,3.222352 0.9,4.15 0.0369,0.217998 0.05364,0.438931 0.05,0.66 0,3.37 -3.92,6.12 -8.76,6.12 -4.8400001,0 -8.7600001,-2.73 -8.7600001,-6.12 0,-0.21 0.01,-0.44 0.05,-0.66 -0.7861822,-0.359951 -1.2902336,-1.145334 -1.29,-2.01 M 16.983908,13.7 c 0,-0.86 -0.68,-1.56 -1.54,-1.56 -0.86,0 -1.56,0.7 -1.56,1.56 0,0.861564 0.698436,1.56 1.56,1.56 0.86,0.02 1.54,-0.7 1.54,-1.56 m -1.29,4.73 c -1.08,-1.08 -3.12,-1.16 -3.71,-1.16 -0.61,0 -2.6500001,0.1 -3.7100001,1.16 -0.1591082,0.15669 -0.1591082,0.41331 0,0.57 0.1566902,0.159108 0.4133098,0.159108 0.57,0 0.68,-0.68 2.1400001,-0.91 3.1400001,-0.91 1,0 2.47,0.23 3.14,0.91 0.15669,0.159108 0.41331,0.159108 0.57,0 0.14,-0.16 0.14,-0.41 0,-0.57 M 8.5639079,15.28 c 0.86,0 1.5600001,-0.7 1.5600001,-1.56 0,-0.861564 -0.6984359,-1.56 -1.5600001,-1.56 -0.86,0 -1.58,0.7 -1.58,1.56 0.02145,0.860284 0.7195129,1.54951 1.58,1.56"
     id="path1"
     sodipodi:nodetypes="cccccscccccccccsscccsscccscccsccccsscc"
     style="fill:#ffffff;fill-opacity:1" />
</svg>
